<svg xmlns="http://www.w3.org/2000/svg" viewBox="1594.187 1168.077 47.78 47.78">
  <g id="icons8_Google_Code" transform="translate(1594.187 1168.077)">
    <path id="Path_1132" data-name="Path 1132" d="M5.116,2A3.133,3.133,0,0,0,2,5.116V36.277a3.133,3.133,0,0,0,3.116,3.116H19.658V41.47H10.212a1.037,1.037,0,0,0-.714.39L4.3,48.092a1.038,1.038,0,0,0,.811,1.688H46.664a1.038,1.038,0,0,0,.812-1.688L42.282,41.86a1.037,1.037,0,0,0-.812-.39H32.122V39.393H46.664a3.133,3.133,0,0,0,3.116-3.116V5.116A3.133,3.133,0,0,0,46.664,2Zm0,2.077H46.664A1.036,1.036,0,0,1,47.7,5.116V36.277a1.035,1.035,0,0,1-1.039,1.039H5.116a1.036,1.036,0,0,1-1.039-1.039V5.116A1.036,1.036,0,0,1,5.116,4.077ZM6.155,6.155V35.238h39.47V6.155ZM8.232,8.232H43.548V33.161H8.232ZM19.95,11.64l-8.31,8.31-.714.747.714.747,8.31,8.31,1.493-1.493L13.88,20.7l7.563-7.563Zm11.88,0-1.493,1.493L37.9,20.7l-7.563,7.563,1.493,1.493,8.31-8.31.714-.747-.714-.747ZM21.735,39.393h8.31v4.155h-8.31ZM10.8,43.548h8.861v2.077H32.122V43.548h8.861L44.456,47.7H7.323Z" transform="translate(-2 -2)"/>
  </g>
</svg>
