<svg xmlns="http://www.w3.org/2000/svg" viewBox="2343.081 1169.115 45.471 45.466">
  <g id="icons8_Design_4" transform="translate(2343.081 1169.115)">
    <path id="Path_1128" data-name="Path 1128" d="M15.26,5.992,6.031,15.221,19.2,28.386l1.05-1.05L8.132,15.221,15.26,8.093,27.375,20.207l1.05-1.05ZM46.9,6.3a4.051,4.051,0,0,0-2.863,1.18l-.627.632-.641-.637-5.511,5.511-27.1,27.1L5.785,51.459l11.376-4.373L49.769,14.478l-.637-.641.632-.623a4.068,4.068,0,0,0,.841-4.461h.423L49.765,7.484A4.034,4.034,0,0,0,46.9,6.3Zm0,1.478a2.568,2.568,0,0,1,1.808,4.378l-.627.632-3.625-3.62.632-.632A2.549,2.549,0,0,1,46.9,7.781Zm-4.131,1.8,4.9,4.9-3.36,3.355-4.893-4.893ZM16,11.5a.744.744,0,1,0,.744.744A.746.746,0,0,0,16,11.5Zm-2.231,2.231a.744.744,0,1,0,.744.744A.746.746,0,0,0,13.773,13.734Zm4.461,0a.744.744,0,1,0,.744.744A.746.746,0,0,0,18.235,13.734Zm20.075.307,4.9,4.9L17.235,44.911a2.938,2.938,0,0,0-.706-1.217,3.312,3.312,0,0,0-1.775-.855,2.152,2.152,0,0,0-.311-.032,2.153,2.153,0,0,0-.032-.311,3.313,3.313,0,0,0-.855-1.775,2.938,2.938,0,0,0-1.217-.706ZM20.465,15.965a.744.744,0,1,0,.744.744A.746.746,0,0,0,20.465,15.965Zm17.845,0a.744.744,0,1,0,.744.744A.746.746,0,0,0,38.31,15.965ZM18.235,18.2a.744.744,0,1,0,.744.744A.746.746,0,0,0,18.235,18.2Zm4.461,0a.744.744,0,1,0,.744.744A.746.746,0,0,0,22.7,18.2Zm13.383,0a.744.744,0,1,0,.744.744A.746.746,0,0,0,36.079,18.2ZM24.926,20.426a.744.744,0,1,0,.744.744A.746.746,0,0,0,24.926,20.426Zm8.922,0a.744.744,0,1,0,.744.744A.746.746,0,0,0,33.848,20.426ZM22.7,22.656a.744.744,0,1,0,.744.744A.746.746,0,0,0,22.7,22.656Zm8.922,0a.744.744,0,1,0,.744.744A.746.746,0,0,0,31.618,22.656Zm-2.231,2.231a.744.744,0,1,0,.744.744A.746.746,0,0,0,29.387,24.887Zm-2.231,2.231a.744.744,0,1,0,.744.744A.746.746,0,0,0,27.157,27.118Zm10.934,1.705-1.05,1.05L49.156,41.988l-7.129,7.129L29.912,37l-1.05,1.05L42.027,51.217l9.229-9.229Zm-13.165.525a.744.744,0,1,0,.744.744A.746.746,0,0,0,24.926,29.348ZM22.7,31.579a.744.744,0,1,0,.744.744A.746.746,0,0,0,22.7,31.579Zm13.383.242a.744.744,0,1,0,.744.744A.743.743,0,0,0,36.079,31.82ZM20.465,33.809a.744.744,0,1,0,.744.744A.746.746,0,0,0,20.465,33.809Zm17.845,0a.744.744,0,1,0,.744.744A.746.746,0,0,0,38.31,33.809Zm-4.461.242a.744.744,0,1,0,.744.744A.743.743,0,0,0,33.848,34.051ZM18.235,36.04a.744.744,0,1,0,.744.744A.746.746,0,0,0,18.235,36.04Zm22.306.242a.744.744,0,1,0,.744.744A.743.743,0,0,0,40.54,36.281ZM16,38.27a.744.744,0,1,0,.744.744A.746.746,0,0,0,16,38.27Zm26.767,0a.744.744,0,1,0,.744.744A.746.746,0,0,0,42.771,38.27Zm-4.461.242a.744.744,0,1,0,.744.744A.743.743,0,0,0,38.31,38.512ZM45,40.743a.744.744,0,1,0,.744.744A.743.743,0,0,0,45,40.743ZM11.292,41.3c.07.009.121.014.2.028a2.272,2.272,0,0,1,1.013.446,2.272,2.272,0,0,1,.446,1.013,3.875,3.875,0,0,1,.079.692v.744h.744a3.875,3.875,0,0,1,.692.079,2.272,2.272,0,0,1,1.013.446,2.272,2.272,0,0,1,.446,1.013c.014.079.019.13.028.2L10.8,47.941l-1.5-1.5Zm31.479,1.678a.744.744,0,1,0,.744.744A.743.743,0,0,0,42.771,42.973Z" transform="translate(-5.785 -5.992)"/>
  </g>
</svg>
