<svg xmlns="http://www.w3.org/2000/svg" viewBox="936.649 278.38 604.613 419.919">
  <defs>
    <style>
      .cls-1 {
        fill: #2c2c2c;
      }
    </style>
  </defs>
  <g id="logo_pattren" data-name="logo pattren" transform="translate(1250 -629)">
    <path id="logo_pattren-2" data-name="logo pattren" class="cls-1" d="M101.449,305.429l108.4-108.4,34.29,34.29-69.921,69.922,45.5,45.5L453.454,113.013l34.7,34.7L215.939,419.92Zm355.7-31.934L495.5,235.142l24.987-24.986c38.231-38.19,35.915-90.439,0-126.354C483.64,46.951,431.391,45.448,396,80.835l-27.423,27.424L263.312,213.528l-34.817-34.819,131.879-132C422.455-15.413,502.939-14.6,560.833,43.376s59.928,135.9-3.25,199.079l-65.736,65.736ZM19.623,223.4,127.9,115.126l34.818,34.819L92.795,219.865,54.482,258.381ZM6.094,103.385l.081-18.446H0V81.607H16.252v3.332H9.791v18.446Zm31.729,0V88.8L31.893,99.2H29.455L23.524,88.8v14.586h-3.7V81.647h3.7l7.193,13,7.15-13h3.655v21.736Z" transform="translate(-313.351 907.38)"/>
  </g>
</svg>
