<svg xmlns="http://www.w3.org/2000/svg" viewBox="1970.192 1405.936 42.846 40.897">
  <g id="icons8_Advertising" transform="translate(1970.192 1405.936)">
    <path id="Path_1134" data-name="Path 1134" d="M42.352,6.25a2.283,2.283,0,0,0-2.264,2.219A29.067,29.067,0,0,1,20.6,15.988H11.516a1.958,1.958,0,0,0-1.838,1.327,5.85,5.85,0,0,0-5.3,5.814v1.3A5.794,5.794,0,0,0,9.568,30.14v.13h.114a1.977,1.977,0,0,0,1.3,1.213c2.564,2.674,3.534,8.021,3.822,12.4a3.5,3.5,0,0,0,4.577,3.084l2.26-.755a3.483,3.483,0,0,0,2.244-4.256c-.576-2-1.5-2.82-2.086-5.2h.645a1.888,1.888,0,0,0,1.858-2.13l-.4-2.869a29.134,29.134,0,0,1,16.185,7.324,2.268,2.268,0,0,0,4.536-.053V26.894a3.182,3.182,0,0,0,2.467-2.467h.13v-.649a3.261,3.261,0,0,0-2.6-3.181V8.522A2.279,2.279,0,0,0,42.352,6.25Zm0,1.3a.966.966,0,0,1,.974.974V39.034a.974.974,0,0,1-1.948,0v-.56l-.211-.191a30.357,30.357,0,0,0-19.914-7.952V17.225A30.357,30.357,0,0,0,41.167,9.273l.211-.191v-.56A.966.966,0,0,1,42.352,7.548Zm-1.623,3.9a.649.649,0,1,0,.649.649A.651.651,0,0,0,40.729,11.443Zm0,2.6a.649.649,0,1,0,.649.649A.651.651,0,0,0,40.729,14.04Zm0,2.6a.649.649,0,1,0,.649.649A.651.651,0,0,0,40.729,16.637Zm-29.213.649h8.439V30.27H11.516a.636.636,0,0,1-.649-.649V17.935A.636.636,0,0,1,11.516,17.286ZM9.568,18.714V28.841a4.6,4.6,0,0,1-3.047-1.818h.45v-1.3h-1.1a4.409,4.409,0,0,1-.195-1.3h1.3v-1.3h-1.3a4.409,4.409,0,0,1,.195-1.3h1.1v-1.3h-.45A4.6,4.6,0,0,1,9.568,18.714Zm3.246.519v1.3h2.6v-1.3Zm27.915,0a.649.649,0,1,0,.649.649A.651.651,0,0,0,40.729,19.234Zm0,2.6a.649.649,0,1,0,.649.649A.651.651,0,0,0,40.729,21.83Zm3.9.268a1.736,1.736,0,0,1,0,3.36Zm-31.81,1.031v1.3h2.6v-1.3Zm27.915,1.3a.649.649,0,1,0,.649.649A.651.651,0,0,0,40.729,24.427Zm-27.915,2.6v1.3h2.6v-1.3Zm27.915,0a.649.649,0,1,0,.649.649A.651.651,0,0,0,40.729,27.024Zm0,2.6a.649.649,0,1,0,.649.649A.651.651,0,0,0,40.729,29.62ZM12.583,31.568H20c.122,7.165,1.895,8.188,2.637,10.752a2.167,2.167,0,0,1-1.412,2.666l-2.256.751A2.169,2.169,0,0,1,16.1,43.8C15.825,39.707,15.005,34.806,12.583,31.568Zm8.679.012c.442.012.88.033,1.319.065l.434,3.161a.566.566,0,0,1-.572.657h-.9A29.146,29.146,0,0,1,21.262,31.58Zm19.467.637a.649.649,0,1,0,.649.649A.651.651,0,0,0,40.729,32.217Zm0,2.6a.649.649,0,1,0,.649.649A.651.651,0,0,0,40.729,34.814Z" transform="translate(-4.375 -6.25)"/>
  </g>
</svg>
