<svg xmlns="http://www.w3.org/2000/svg" viewBox="2231 448 71.809 73.202">
  <path id="Path_1126" data-name="Path 1126" d="M14.566,1.144a3.048,3.048,0,0,0-.755.184,2.325,2.325,0,0,0-1.523,2.285V8.946L10.637,7.3A1.257,1.257,0,0,0,8.859,9.072l1.65,1.65H5.178a2.508,2.508,0,0,0-2.285,1.523A2.556,2.556,0,0,0,3.4,15.039l6.855,6.856A35.026,35.026,0,0,0,5.939,38.653a34.553,34.553,0,0,0,14.346,27.93L16.35,72.3a1.343,1.343,0,0,0,.254,1.777,1.8,1.8,0,0,0,.762.254,1.155,1.155,0,0,0,1.016-.508l4.062-5.713a34.377,34.377,0,0,0,35.547,0l4.062,5.713a1.154,1.154,0,0,0,1.016.508,1.8,1.8,0,0,0,.762-.254,1.139,1.139,0,0,0,.254-1.777l-3.936-5.713A34.306,34.306,0,0,0,40.217,4.375,35.026,35.026,0,0,0,23.459,8.692L16.6,1.836A2.39,2.39,0,0,0,14.566,1.144Zm.26,2.469,8.125,8.125a2.506,2.506,0,0,1,.762,1.777v6.728l-8.887-8.887Zm25.391,3.3A31.717,31.717,0,1,1,12.16,23.8a4.939,4.939,0,0,0,2.92.889h9.268L39.2,39.541a1.227,1.227,0,0,0,1.777,0,1.227,1.227,0,0,0,0-1.777L26.252,22.91V13.643a6.038,6.038,0,0,0-.889-2.92A30.438,30.438,0,0,1,40.217,6.914Zm0,5.078a28.449,28.449,0,0,0-12.061,2.793,1.121,1.121,0,0,0-.508,1.65,1.12,1.12,0,0,0,1.65.508A24.5,24.5,0,0,1,40.09,14.4,24.121,24.121,0,1,1,15.969,38.526a35.881,35.881,0,0,1,.254-3.682,1.221,1.221,0,1,0-2.412-.381,20.509,20.509,0,0,0-.254,3.936,26.661,26.661,0,1,0,26.66-26.406ZM5.178,13.262h7.871l8.887,8.887H15.207a2.506,2.506,0,0,1-1.777-.762Zm35.039,7.617a17.257,17.257,0,0,0-8.252,2.031,1.221,1.221,0,1,0,1.143,2.158,15.011,15.011,0,0,1,6.982-1.777A15.5,15.5,0,0,1,55.451,38.653,14.994,14.994,0,0,1,47.2,52.11a1.171,1.171,0,0,0-.508,1.65,1.334,1.334,0,0,0,1.143.635,1.144,1.144,0,0,0,.635-.127A17.447,17.447,0,0,0,57.99,38.653,17.826,17.826,0,0,0,40.217,20.879ZM17.638,26.11a1.272,1.272,0,0,0-1.162.609,24.04,24.04,0,0,0-1.143,2.666,1.041,1.041,0,0,0,.635,1.523c.127,0,.254.127.508.127a1.11,1.11,0,0,0,1.143-.762,19.55,19.55,0,0,1,1.016-2.412,1.337,1.337,0,0,0-.508-1.65A1.461,1.461,0,0,0,17.638,26.11Zm8.373,2.977a1.339,1.339,0,0,0-1.282.679,1.57,1.57,0,0,0,.508,1.777l2.158,1.269a1.145,1.145,0,0,0,.635.127,1.515,1.515,0,0,0,1.143-.635,1.284,1.284,0,0,0-.508-1.777l-2.158-1.27A1.219,1.219,0,0,0,26.011,29.087Zm14.206.679a6.183,6.183,0,0,0-1.523.127,1.295,1.295,0,1,0,.508,2.539c.381,0,.762-.127,1.016-.127a6.348,6.348,0,1,1-6.348,6.348A2.475,2.475,0,0,1,34,37.637a1.392,1.392,0,0,0-1.016-1.523,1.317,1.317,0,0,0-1.523,1.016,6.183,6.183,0,0,0-.127,1.523,8.887,8.887,0,1,0,8.887-8.887Zm-16.5,7.617a1.27,1.27,0,0,0,0,2.539h2.539a1.27,1.27,0,1,0,0-2.539Zm4.247,7a1.2,1.2,0,0,0-.438.114l-2.158,1.27a1.406,1.406,0,0,0-.508,1.777A1.333,1.333,0,0,0,26,48.174a1.145,1.145,0,0,0,.635-.127l2.158-1.269a1.285,1.285,0,0,0-.832-2.4ZM33.38,49.4a1.342,1.342,0,0,0-1.288.679l-1.27,2.158a1.406,1.406,0,0,0,.508,1.777,1.145,1.145,0,0,0,.635.127,1.515,1.515,0,0,0,1.143-.635l1.269-2.158a1.285,1.285,0,0,0-.508-1.777A1.224,1.224,0,0,0,33.38,49.4Zm6.837,1.949a1.2,1.2,0,0,0-1.27,1.269v2.539a1.27,1.27,0,1,0,2.539,0V52.617A1.2,1.2,0,0,0,40.217,51.348Z" transform="translate(2228.315 446.875)"/>
</svg>
