<svg xmlns="http://www.w3.org/2000/svg" viewBox="1595.225 1403.859 45.702 45.703">
  <g id="icons8_Unity" transform="translate(1595.225 1403.859)">
    <path id="Path_1131" data-name="Path 1131" d="M41.9,3a.97.97,0,0,0-.284.032L24.569,7.187a1.017,1.017,0,0,0-.718.621l-1.818,4.54H16.5a1.033,1.033,0,0,0-.763.337L3.276,26.188a1.03,1.03,0,0,0,.049,1.453L16.389,40.1a1.034,1.034,0,0,0,.718.288h5.964l1.818,4.54a1.024,1.024,0,0,0,.783.637l18.137,3.116a1.041,1.041,0,0,0,1.193-.8l3.676-16.858a1.046,1.046,0,0,0-.126-.763L46.134,26.3,48.6,21.1a1.02,1.02,0,0,0,.041-.787L42.843,3.7A1.045,1.045,0,0,0,41.9,3Zm-.706,2.272L46.544,20.6,45.01,23.823,41.383,12.04a1.038,1.038,0,0,0-1.919-.158L32.193,26.423a1.037,1.037,0,0,0,.061,1.035l8.31,12.683a1.037,1.037,0,0,0,1.879-.341l2.576-11.336,1.542,2.528L43.184,46.471,26.6,43.623l-1.16-2.905,12.03,2.236a1.04,1.04,0,0,0,1.051-1.6L29.827,28.387a1.041,1.041,0,0,0-.86-.458H12.348a1.037,1.037,0,0,0-.7,1.806l9.438,8.581H17.525L5.5,26.841,16.957,14.426h3.429l-8.8,9.689a1.037,1.037,0,0,0,.767,1.737H28.967a1.04,1.04,0,0,0,.929-.572l7.271-14.542a1.04,1.04,0,0,0-.9-1.505.955.955,0,0,0-.264.024l-11.568,2.67,1.136-2.848ZM34.323,11.78l-6,11.994H14.7l8.59-9.446Zm5.843,3.351,3.307,10.76L40.961,36.956,34.319,26.821ZM15.034,30.006H28.415l7,10.452L24.257,38.384Z" transform="translate(-3 -2.999)"/>
  </g>
</svg>
