<svg xmlns="http://www.w3.org/2000/svg" viewBox="1678 452.077 78 78">
  <path id="Path_1127" data-name="Path 1127" d="M19.5,0c-.353,0-.481.055-.39.049A8.555,8.555,0,0,0,10.92,8.58v7.946a1.557,1.557,0,0,0-1.073.683A23.8,23.8,0,0,0,0,36.075H3.12S.372,37.08.39,37.1l.1.1c.055.055.1.11.2.2a8.845,8.845,0,0,0,.78.634,15.619,15.619,0,0,0,3.169,1.706C7.568,40.95,12.273,42.12,19.5,42.12s11.932-1.17,14.869-2.389a15.618,15.618,0,0,0,3.169-1.706,6.086,6.086,0,0,0,1.073-.975,1.557,1.557,0,0,0,.39-.975,23.773,23.773,0,0,0-9.75-18.769,1.582,1.582,0,0,0-1.17-.78v-1.17l14.089-1.267a7.845,7.845,0,0,0,7.459,2.974L63.082,32.711A7.759,7.759,0,0,0,62.4,35.88a7.68,7.68,0,0,0,1.024,3.9L46.556,65.52H35.636a7.7,7.7,0,0,0-7.556,7.8v3.12A1.563,1.563,0,0,0,29.64,78H71.76a1.563,1.563,0,0,0,1.56-1.56V73.32a7.7,7.7,0,0,0-7.556-7.8H57.72L72.1,43.436a7.784,7.784,0,0,0-.488-15.21l-15.5-17.989a7.006,7.006,0,0,0,.049-.878A7.792,7.792,0,0,0,42.169,4.631L27.69,6A8.561,8.561,0,0,0,19.89.049C19.981.055,19.853,0,19.5,0Zm-.049,3.12a.642.642,0,0,0,.244.049h.049a5.384,5.384,0,0,1,5.021,4.046A1.551,1.551,0,0,0,24.96,8.58v5.07a1.637,1.637,0,0,0,0,.488v2.73a51.075,51.075,0,0,1-5.46.292,51.35,51.35,0,0,1-5.46-.292V8.58a5.4,5.4,0,0,1,5.216-5.411h.049C19.4,3.163,19.409,3.126,19.451,3.12ZM48.36,4.68a4.658,4.658,0,0,1,4.68,4.68,4.6,4.6,0,0,1-.1.878,1.631,1.631,0,0,0-.049.292,4.654,4.654,0,0,1-2.876,3.218c-.012.006-.037-.006-.049,0a1.371,1.371,0,0,0-.146.049,1.565,1.565,0,0,0-.244.049l-.049.049c-.049.012-.1.037-.146.049a4.844,4.844,0,0,1-4.924-1.95c-.012-.018-.037-.03-.049-.049a.748.748,0,0,0-.049-.1c-.006-.012.006-.037,0-.049a1.314,1.314,0,0,0-.146-.293,1.5,1.5,0,0,0-.195-.244,4.9,4.9,0,0,1-.341-1.9,4.742,4.742,0,0,1,.536-2.242l.049-.049c.012-.018.037-.03.049-.049a1.314,1.314,0,0,0,.146-.292A4.677,4.677,0,0,1,48.36,4.68ZM40.706,7.946A7.722,7.722,0,0,0,40.56,9.36a7.514,7.514,0,0,0,.2,1.706L28.08,12.236V9.068ZM54.892,13.6,67.714,28.519a7.763,7.763,0,0,0-2.73,1.609L52.7,15.844A8.179,8.179,0,0,0,54.892,13.6ZM11.5,19.695a51.867,51.867,0,0,0,8,.585,53.3,53.3,0,0,0,8-.536,21.4,21.4,0,0,1,8.288,15.7c-.055.043-.03,0-.1.049a12.288,12.288,0,0,1-2.535,1.365C30.652,37.891,26.4,39,19.5,39S8.348,37.891,5.85,36.855A12.288,12.288,0,0,1,3.315,35.49c-.055-.037-.055-.061-.1-.1A21.428,21.428,0,0,1,11.5,19.695ZM70.2,31.2a4.677,4.677,0,0,1,.926,9.262,1.044,1.044,0,0,0-.195,0,1.341,1.341,0,0,0-.146.049,4.551,4.551,0,0,1-.585.049A4.622,4.622,0,0,1,66.739,39a1.6,1.6,0,0,0-.439-.487,4.9,4.9,0,0,1-.2-4.973l.049-.049c.024-.037.073-.061.1-.1A1.315,1.315,0,0,0,66.4,33.1,4.675,4.675,0,0,1,70.2,31.2ZM65.618,42.12A7.9,7.9,0,0,0,68.4,43.436L54.015,65.52h-3.7ZM35.636,68.64H54.21a1.554,1.554,0,0,0,1.17,0H65.764A4.533,4.533,0,0,1,70.2,73.32v1.56h-39V73.32A4.533,4.533,0,0,1,35.636,68.64Z" transform="translate(1678 452.077)"/>
</svg>
